<svg width="48" height="48" viewBox="0 0 48 48" fill="none" xmlns="http://www.w3.org/2000/svg">
<path d="M32.8501 16.61C32.3393 16.099 31.7329 15.6936 31.0654 15.4171C30.398 15.1405 29.6826 14.9982 28.9601 14.9982C28.2376 14.9982 27.5222 15.1405 26.8547 15.4171C26.1873 15.6936 25.5808 16.099 25.0701 16.61L24.0101 17.67L22.9501 16.61C21.9184 15.5783 20.5191 14.9987 19.0601 14.9987C17.601 14.9987 16.2018 15.5783 15.1701 16.61C14.1384 17.6417 13.5588 19.041 13.5588 20.5C13.5588 21.959 14.1384 23.3583 15.1701 24.39L16.2301 25.45L24.0101 33.23L31.7901 25.45L32.8501 24.39C33.3611 23.8792 33.7664 23.2728 34.043 22.6053C34.3195 21.9379 34.4619 21.2225 34.4619 20.5C34.4619 19.7775 34.3195 19.0621 34.043 18.3946C33.7664 17.7272 33.3611 17.1208 32.8501 16.61Z" stroke="black" stroke-linecap="round" stroke-linejoin="round"/>
</svg>
