<svg width="266" height="49" viewBox="0 0 266 49" fill="none" xmlns="http://www.w3.org/2000/svg">
<path d="M146.897 28.0191V19.9959C146.897 19.6441 146.804 19.2986 146.628 18.9941C146.452 18.6896 146.199 18.4367 145.894 18.2608L138.874 14.2492C138.569 14.0732 138.223 13.9805 137.871 13.9805C137.519 13.9805 137.173 14.0732 136.868 14.2492L129.848 18.2608C129.543 18.4367 129.29 18.6896 129.114 18.9941C128.938 19.2986 128.845 19.6441 128.845 19.9959V28.0191C128.845 28.3708 128.938 28.7163 129.114 29.0208C129.29 29.3253 129.543 29.5782 129.848 29.7541L136.868 33.7657C137.173 33.9417 137.519 34.0344 137.871 34.0344C138.223 34.0344 138.569 33.9417 138.874 33.7657L145.894 29.7541C146.199 29.5782 146.452 29.3253 146.628 29.0208C146.804 28.7163 146.897 28.3708 146.897 28.0191Z" stroke="black" stroke-linecap="round" stroke-linejoin="round"/>
<path d="M129.115 18.9541L137.87 24.0187L146.625 18.9541" stroke="black" stroke-linecap="round" stroke-linejoin="round"/>
<path d="M137.872 34.1191V24.0098" stroke="black" stroke-linecap="round" stroke-linejoin="round"/>
<path d="M118.703 21.981H125.315" stroke="black" stroke-linecap="round"/>
<path d="M121.315 25.981H125.315" stroke="black" stroke-linecap="round"/>
</svg>
