<svg width="492" height="38" viewBox="0 0 492 38" fill="none" xmlns="http://www.w3.org/2000/svg">
<g clip-path="url(#clip0_1_441)">
<path d="M49.3371 21.1028L44.2454 28.2305L44.3132 28.2861C44.3544 28.2394 44.3966 28.1938 44.4367 28.146C45.4065 26.994 46.3475 25.8109 47.3551 24.6989C48.4807 23.4479 49.7353 22.3326 51.1923 21.4686C52.0387 20.9671 52.9319 20.5879 53.9195 20.4778C54.4864 20.398 55.0642 20.4567 55.6034 20.6491C56.5811 21.0216 57.1605 21.9556 57.1205 23.0954C57.0916 23.9694 56.7968 24.7634 56.4042 25.5329C55.7602 26.7894 54.9038 27.9069 54.0685 29.04C53.3934 29.9585 52.7038 30.867 52.1678 31.8778C51.8608 32.4571 51.6228 33.0587 51.5772 33.7248C51.5371 34.3141 51.8252 34.7823 52.3324 34.8512C52.5818 34.8848 52.8355 34.8643 53.0764 34.7912C53.8272 34.5588 54.4467 34.0895 55.0529 33.6091C56.4187 32.5272 57.611 31.2662 58.7766 29.9797C58.84 29.9096 58.9012 29.8362 58.9668 29.7684C59.4217 29.3141 59.7727 28.7667 59.9956 28.1638C60.4583 26.885 61.2635 25.8031 62.2056 24.8279C63.9953 22.9497 66.25 21.5782 68.7411 20.8526C69.9006 20.4958 71.1195 20.373 72.3269 20.4912C72.9592 20.5461 73.5746 20.7252 74.1376 21.0182C75.4622 21.7388 75.7915 22.7974 75.3121 24.1596C74.9072 25.306 74.0286 25.9387 72.8741 26.2312C72.1846 26.4243 71.4493 26.3704 70.7953 26.0788C70.4657 25.9413 70.1916 25.6975 70.0168 25.3861C69.7398 24.8701 69.8766 24.2641 70.3694 23.8082C70.7898 23.4266 71.3183 23.1849 71.882 23.1165C72.0399 23.0932 72.1189 23.0465 72.1133 22.873C72.1055 22.6339 72.1389 22.3915 72.1133 22.1547C72.0221 21.244 71.446 20.8148 70.5406 20.9626C69.8072 21.0883 69.1115 21.3775 68.5053 21.8089C65.7647 23.7137 64.0174 26.2801 63.419 29.5838C63.2689 30.4089 63.2433 31.2518 63.4969 32.0679C63.9785 33.6247 65.2865 34.5388 66.9537 34.4787C68.3796 34.4276 69.6787 33.9616 70.9143 33.2856C72.4937 32.4216 73.8718 31.2907 75.1742 30.0608C76.5492 28.7489 77.8391 27.3505 79.0358 25.8742C79.3617 25.4762 79.5919 25.0013 79.8633 24.5588C80.5396 23.4512 81.2136 22.3423 81.8854 21.2317C81.9023 21.1874 81.9331 21.1496 81.9731 21.124C82.0132 21.0983 82.0604 21.0862 82.1078 21.0894C83.4069 21.0961 84.706 21.0894 86.0006 21.0894C86.0295 21.0894 86.0595 21.095 86.1196 21.1016C86.0662 21.1862 86.0262 21.254 85.9828 21.324C84.4846 23.6269 82.9798 25.9232 81.4916 28.235C80.7598 29.3736 80.0724 30.5412 79.5419 31.7933C79.3195 32.3193 79.1126 32.8563 79.1092 33.4346C79.1104 33.6795 79.1626 33.9215 79.2627 34.1451C79.4418 34.5421 79.8411 34.7011 80.3216 34.621C80.8615 34.5123 81.3759 34.3021 81.8375 34.0017C82.9865 33.3111 83.9686 32.4182 84.9039 31.4675C86.6435 29.6972 88.0182 27.6612 89.2794 25.5373C90.1392 24.0917 91.0334 22.6629 91.9088 21.2251C91.9276 21.1822 91.9588 21.1461 91.9985 21.1213C92.0382 21.0965 92.0844 21.0842 92.1312 21.0861H95.8383C95.8683 21.0861 95.8983 21.0861 95.9561 21.0961C95.8294 21.3062 95.7159 21.5008 95.5958 21.691C94.0943 24.0673 92.5861 26.4391 91.0924 28.8188C90.3694 29.9719 89.6587 31.1328 89.1571 32.4049C88.9465 32.8949 88.8259 33.4189 88.8012 33.9516C88.7995 34.0528 88.8084 34.1538 88.8279 34.253C88.9091 34.6811 89.206 34.899 89.6465 34.8657C90.0814 34.8155 90.5011 34.6754 90.8788 34.4543C91.9388 33.8905 92.8597 33.1377 93.7539 32.3493C95.4345 30.8792 96.9116 29.2202 98.3708 27.5278C98.6722 27.1786 98.9759 26.8283 99.2606 26.4647C99.3918 26.2979 99.5297 26.2134 99.7411 26.249C99.8202 26.2547 99.8998 26.2547 99.9791 26.249C99.9346 26.3168 99.909 26.3602 99.8768 26.4035C98.3537 28.3233 96.7197 30.1522 94.9829 31.8811C93.9653 32.8819 92.9009 33.8271 91.6752 34.5732C90.8799 35.0581 90.0413 35.435 89.1082 35.5629C88.2807 35.6741 87.4865 35.6051 86.7903 35.0881C86.5062 34.8839 86.2727 34.6174 86.1077 34.309C85.9426 34.0006 85.8504 33.6585 85.8382 33.3089C85.7793 32.4778 85.9232 31.6447 86.2575 30.8815C86.2703 30.841 86.2785 30.7992 86.282 30.7569L86.223 30.7202C86.1541 30.7981 86.0874 30.877 86.0173 30.9515C85.0519 31.9834 84.0853 33.0142 82.9576 33.8738C82.0122 34.5944 80.9945 35.1737 79.8244 35.4428C79.1682 35.594 78.5031 35.6874 77.8302 35.554C76.7702 35.3416 76.0406 34.5265 75.906 33.4501C75.8182 32.7496 75.9683 32.0902 76.1963 31.4408C76.6001 30.2899 77.1729 29.2168 77.7534 28.1549C77.7835 28.0993 77.8124 28.0437 77.8402 27.987C77.8402 27.9781 77.8346 27.9636 77.8268 27.9392C77.4843 28.3106 77.1495 28.6809 76.8092 29.0434C75.2075 30.7458 73.498 32.3237 71.5194 33.5869C69.9968 34.5599 68.3751 35.2994 66.5911 35.6407C65.3577 35.8776 64.1142 35.9743 62.8763 35.6863C61.0311 35.2582 59.9689 34.0662 59.5963 32.2336C59.4331 31.4385 59.4071 30.6212 59.5196 29.8173L59.2971 30.0686C58.2127 31.2829 57.1038 32.4749 55.8737 33.5447C55.0673 34.2463 54.2198 34.889 53.2043 35.2682C52.1889 35.6474 51.1857 35.7597 50.1524 35.4306C49.1191 35.1014 48.4429 34.2018 48.3728 33.1076C48.315 32.1658 48.5953 31.3085 48.999 30.48C49.5051 29.4381 50.1746 28.5007 50.8564 27.57C51.5672 26.6004 52.2856 25.6352 52.9797 24.6533C53.3671 24.1319 53.6576 23.5451 53.8372 22.9208C54.1564 21.731 53.3022 21.2584 52.408 21.4564C51.8085 21.5887 51.2902 21.8923 50.7942 22.2347C49.7453 22.9586 48.8277 23.8327 47.9635 24.76C45.2591 27.6718 42.8814 30.8707 40.8731 34.2997C40.7218 34.5554 40.5906 34.8234 40.4393 35.0781C40.4216 35.1075 40.3977 35.1326 40.3692 35.1518C40.3408 35.171 40.3086 35.1838 40.2747 35.1893C39.0079 35.1948 37.7399 35.1893 36.4731 35.1893C36.462 35.1893 36.4509 35.1804 36.4197 35.167C36.4764 35.0692 36.5309 34.9713 36.5866 34.8768L42.9674 24.3375C43.5858 23.3134 44.1808 22.2759 44.7848 21.2429C44.8371 21.1528 44.8815 21.085 45.0072 21.0861C46.4072 21.0905 47.8078 21.0905 49.2092 21.0861C49.2381 21.0939 49.2693 21.1028 49.3371 21.1028ZM54.8549 0.550103C54.638 0.633501 54.4267 0.733579 54.2042 0.799186C52.5737 1.27734 51.1901 2.19138 49.8977 3.25776C47.8957 4.90682 46.2996 6.90171 44.926 9.08563C43.459 11.4208 42.1455 13.836 40.8686 16.2746C40.3937 17.1819 39.931 18.096 39.4628 19.0078C39.4283 19.0745 39.3983 19.1435 39.3449 19.2547C40.5304 19.0985 41.6836 18.7555 42.7616 18.2383C43.8472 17.7112 44.6813 16.865 45.5856 16.0688L45.8414 16.3513C45.5311 16.656 45.2397 16.9718 44.9183 17.2553C43.2586 18.7516 41.2227 19.7676 39.029 20.1943C38.8066 20.2365 38.7209 20.3666 38.6353 20.5445C37.5414 22.8719 36.2013 25.0755 34.6379 27.1174C32.3434 30.0831 29.6051 32.5417 26.3196 34.3709C23.8097 35.7685 21.0709 36.7079 18.2315 37.1452C16.6792 37.3874 15.1086 37.4934 13.5379 37.4621C11.1299 37.4177 8.78643 37.0374 6.57532 36.0377C4.70344 35.1915 3.08515 34.0106 1.83723 32.3626C0.619344 30.7536 0.0498839 28.9233 0.00539482 26.9151C-0.0568899 23.8883 1.0064 21.3107 3.08849 19.1312C5.28514 16.8294 7.9556 15.3905 11.0765 14.7834C12.7074 14.4649 14.375 14.377 16.0304 14.5221C18.435 14.7334 20.6072 15.5229 22.4157 17.1719C23.7325 18.3751 24.5767 19.8407 24.8236 21.6198C25.1695 24.1073 24.51 26.2901 22.7493 28.0993C20.9887 29.9085 18.802 30.9593 16.314 31.3685C15.0241 31.5754 13.7137 31.6228 12.4123 31.5097L12.4468 31.2084C12.6548 31.2206 12.855 31.2373 13.0552 31.2429C16.4541 31.3363 19.4227 30.2421 21.953 27.9814C23.0218 27.0274 23.8137 25.8687 24.0529 24.4353C24.4355 22.148 23.9561 20.0986 22.1688 18.4929C21.1833 17.6034 19.9966 17.1163 18.7142 16.8406C17.1871 16.5136 15.6467 16.5159 14.1007 16.6471C12.4067 16.7758 10.7441 17.1741 9.17571 17.8269C6.94236 18.7732 5.02265 20.1431 3.54117 22.0813C2.22318 23.806 1.61924 25.7731 1.69821 27.9347C1.79831 30.6591 3.02509 32.783 5.19727 34.3842C6.68543 35.4851 8.35933 36.1578 10.1689 36.497C13.4823 37.1119 16.7489 36.9217 19.9565 35.8498C22.5302 34.988 24.7703 33.5658 26.7567 31.7288C28.6853 29.9496 30.2891 27.8958 31.7283 25.7086C32.8245 24.0275 33.8271 22.2872 34.7314 20.4956C34.7681 20.4244 34.8014 20.3499 34.8426 20.2654C34.4811 20.1998 34.1319 20.1465 33.7882 20.0708C32.6115 19.8106 31.5437 19.3292 30.6595 18.4907C29.7145 17.608 29.1244 16.4107 29.0001 15.1237C28.7365 12.7652 29.5239 10.7403 30.9932 8.94107C32.3112 7.31425 33.9606 6.07774 35.7813 5.05583C37.9168 3.85601 40.2057 3.03092 42.5403 2.32482C45.0194 1.5791 47.5546 1.03469 50.1213 0.696884C51.4886 0.501277 52.8686 0.408722 54.2498 0.420002C54.45 0.420002 54.6502 0.457809 54.8504 0.477824L54.8549 0.550103ZM31.2023 14.5421C31.2367 14.9202 31.2534 15.3005 31.3135 15.6752C31.4625 16.6248 31.834 17.4688 32.5514 18.136C33.2999 18.8321 34.2142 19.1245 35.2052 19.2335C35.3642 19.2513 35.4354 19.1523 35.5055 19.0323C36.6066 17.1419 37.7588 15.2771 38.9968 13.4724C40.912 10.6769 42.983 8.00924 45.4588 5.67854C47.403 3.84822 49.5307 2.28367 51.9731 1.17059C52.0195 1.13978 52.0611 1.10231 52.0966 1.05939C52.0442 1.03746 51.9886 1.02395 51.932 1.01936C49.8019 1.217 47.6883 1.56367 45.6067 2.05683C42.963 2.69622 40.416 3.59358 38.0436 4.94797C36.3474 5.92095 34.787 7.06962 33.5135 8.57301C32.0553 10.2977 31.2323 12.2637 31.2023 14.5421Z" fill="black"/>
</g>
<defs>
<clipPath id="clip0_1_441">
<rect width="100" height="37.14" fill="white" transform="translate(0 0.419998)"/>
</clipPath>
</defs>
</svg>
