<svg width="48" height="49" viewBox="0 0 48 49" fill="none" xmlns="http://www.w3.org/2000/svg">
<path d="M28.5833 14.4248H19.4167C16.6322 14.4248 14.375 16.682 14.375 19.4665V28.6331C14.375 31.4176 16.6322 33.6748 19.4167 33.6748H28.5833C31.3678 33.6748 33.625 31.4176 33.625 28.6331V19.4665C33.625 16.682 31.3678 14.4248 28.5833 14.4248Z" stroke="black" stroke-width="0.916667"/>
<path d="M24 28.1748C26.2782 28.1748 28.125 26.328 28.125 24.0498C28.125 21.7716 26.2782 19.9248 24 19.9248C21.7218 19.9248 19.875 21.7716 19.875 24.0498C19.875 26.328 21.7218 28.1748 24 28.1748Z" stroke="black" stroke-width="0.916667"/>
<path d="M29.5 19.4666C30.0063 19.4666 30.4167 19.0562 30.4167 18.55C30.4167 18.0437 30.0063 17.6333 29.5 17.6333C28.9937 17.6333 28.5833 18.0437 28.5833 18.55C28.5833 19.0562 28.9937 19.4666 29.5 19.4666Z" fill="black"/>
</svg>
